<svg id="Layer_1" data-name="Layer 1" xmlns="http://www.w3.org/2000/svg" xmlns:xlink="http://www.w3.org/1999/xlink" viewBox="0 0 150 150"><defs><style>.cls-1{fill:url(#linear-gradient);}.cls-2{fill:url(#linear-gradient-2);}.cls-3{fill:#fff;}</style><linearGradient id="linear-gradient" x1="-66.06" y1="-11.11" x2="212.67" y2="159.04" gradientUnits="userSpaceOnUse"><stop offset="0.04" stop-color="#4907ab"/><stop offset="1" stop-color="#00eae4"/></linearGradient><linearGradient id="linear-gradient-2" x1="-147.6" y1="-122.16" x2="164.36" y2="154.15" xlink:href="#linear-gradient"/></defs><path class="cls-1" d="M142.49,81.55a12,12,0,0,1-3.84,16.83,12,12,0,0,0-5.79,10.27,13.41,13.41,0,0,0,.1,1.54,11.67,11.67,0,0,1,.1,1.56,12,12,0,0,1-10.86,11.93A12,12,0,0,0,112,131.85a12,12,0,0,1-11.4,8.24,11.86,11.86,0,0,1-4.15-.75,12,12,0,0,0-12.78,2.92,12,12,0,0,1-17.26,0,12,12,0,0,0-12.78-2.92,11.86,11.86,0,0,1-4.15.75A12,12,0,0,1,38,131.85a12,12,0,0,0-10.24-8.17,12,12,0,0,1-10.86-11.93,11.67,11.67,0,0,1,.1-1.56,13.41,13.41,0,0,0,.1-1.54,12,12,0,0,0-5.79-10.27A12,12,0,0,1,7.51,81.55,12,12,0,0,0,9.45,75a12,12,0,0,0-1.94-6.55,12,12,0,0,1,3.84-16.83,12,12,0,0,0,5.79-10.27,13.41,13.41,0,0,0-.1-1.54,11.67,11.67,0,0,1-.1-1.56A12,12,0,0,1,27.8,26.32,12,12,0,0,0,38,18.15a12,12,0,0,1,11.4-8.24,11.86,11.86,0,0,1,4.15.75,12,12,0,0,0,4.15.74,12,12,0,0,0,8.63-3.66,12,12,0,0,1,17.26,0,12,12,0,0,0,12.78,2.92,11.86,11.86,0,0,1,4.15-.75A12,12,0,0,1,112,18.15a12,12,0,0,0,10.24,8.17,12,12,0,0,1,10.86,11.93,11.67,11.67,0,0,1-.1,1.56,13.41,13.41,0,0,0-.1,1.54,12,12,0,0,0,5.79,10.27,12,12,0,0,1,3.84,16.83,12,12,0,0,0,0,13.1Z"/><circle class="cls-2" cx="75" cy="75" r="54.67"/><polygon class="cls-3" points="64.04 107.44 40.63 84.03 50.68 73.98 62.95 86.24 96.71 44.67 107.74 53.63 64.04 107.44"/></svg>