<svg id="Layer_1" data-name="Layer 1" xmlns="http://www.w3.org/2000/svg" xmlns:xlink="http://www.w3.org/1999/xlink" viewBox="0 0 150 150"><defs><style>.cls-1{fill:url(#linear-gradient);}.cls-2{fill:url(#linear-gradient-2);}.cls-3{fill:#1c1c1c;}</style><linearGradient id="linear-gradient" x1="-68.32" y1="-12.49" x2="214.88" y2="160.39" gradientUnits="userSpaceOnUse"><stop offset="0.04" stop-color="#4907ab"/><stop offset="1" stop-color="#00eae4"/></linearGradient><linearGradient id="linear-gradient-2" x1="-151.16" y1="-125.32" x2="165.79" y2="155.42" xlink:href="#linear-gradient"/></defs><path class="cls-1" d="M143.57,81.66a12.19,12.19,0,0,1-3.9,17.09,12.21,12.21,0,0,0-5.88,10.44,11.67,11.67,0,0,0,.1,1.56A12.21,12.21,0,0,1,123,124.46a12.2,12.2,0,0,0-10.41,8.31,12.18,12.18,0,0,1-15.8,7.6,12.32,12.32,0,0,0-4.22-.75,12.19,12.19,0,0,0-8.76,3.72,12.22,12.22,0,0,1-17.54,0,12.19,12.19,0,0,0-8.76-3.72,12.32,12.32,0,0,0-4.22.75,12.18,12.18,0,0,1-15.8-7.6A12.2,12.2,0,0,0,27,124.46a12.21,12.21,0,0,1-10.93-13.71,11.67,11.67,0,0,0,.1-1.56,12.21,12.21,0,0,0-5.88-10.44,12.19,12.19,0,0,1-3.9-17.09A12.26,12.26,0,0,0,8.4,75a12.26,12.26,0,0,0-2-6.66,12.19,12.19,0,0,1,3.9-17.09,12.21,12.21,0,0,0,5.88-10.44,11.67,11.67,0,0,0-.1-1.56A12.21,12.21,0,0,1,27,25.54a12.2,12.2,0,0,0,10.41-8.31,12.18,12.18,0,0,1,15.8-7.6,12.32,12.32,0,0,0,4.22.75,12.19,12.19,0,0,0,8.76-3.72,12.22,12.22,0,0,1,17.54,0,12.18,12.18,0,0,0,13,3,12.18,12.18,0,0,1,15.8,7.6A12.2,12.2,0,0,0,123,25.54a12.21,12.21,0,0,1,10.93,13.71,11.67,11.67,0,0,0-.1,1.56,12.21,12.21,0,0,0,5.88,10.44,12.19,12.19,0,0,1,3.9,17.09,12.24,12.24,0,0,0,0,13.32Z"/><circle class="cls-2" cx="75" cy="75" r="55.54"/><path class="cls-3" d="M92.46,68.71H85.69v-10a11.48,11.48,0,0,0-23,0v10H56v-10a18.25,18.25,0,1,1,36.49,0Z"/><path class="cls-3" d="M74.39,43.74a14.93,14.93,0,0,0-14.8,15V67h3.14V58.67a11.48,11.48,0,0,1,23,0V67H89.2V58.76A14.93,14.93,0,0,0,74.39,43.74Z"/><path class="cls-3" d="M94.42,64.18h-40a3.17,3.17,0,0,0-3.17,3.17v35.08a3.17,3.17,0,0,0,3.17,3.17h40a3.17,3.17,0,0,0,3.17-3.17V67.35A3.17,3.17,0,0,0,94.42,64.18ZM76.87,85.4v5.51a2.46,2.46,0,1,1-4.91,0V85.4a4.84,4.84,0,1,1,4.91,0Z"/><path class="cls-3" d="M97.59,102.43V67.35a3.17,3.17,0,0,0-3.17-3.17h-.34C95,72.1,96.22,97.61,75,105.6H94.42A3.17,3.17,0,0,0,97.59,102.43Z"/><path class="cls-3" d="M51.24,67.35v35.08a3.17,3.17,0,0,0,3.17,3.17h.28C51.8,73.09,68,64.18,68,64.18H54.41A3.17,3.17,0,0,0,51.24,67.35Z"/></svg>