<svg id="Layer_1" data-name="Layer 1" xmlns="http://www.w3.org/2000/svg" xmlns:xlink="http://www.w3.org/1999/xlink" viewBox="0 0 150 150"><defs><style>.cls-1{fill:url(#linear-gradient);}.cls-2{fill:url(#linear-gradient-2);}.cls-3{fill:#fff;}</style><linearGradient id="linear-gradient" x1="-66.06" y1="-11.11" x2="212.67" y2="159.04" gradientUnits="userSpaceOnUse"><stop offset="0.04" stop-color="#4907ab"/><stop offset="1" stop-color="#00eae4"/></linearGradient><linearGradient id="linear-gradient-2" x1="-147.6" y1="-122.16" x2="164.36" y2="154.15" xlink:href="#linear-gradient"/></defs><path class="cls-1" d="M142.49,81.55a12,12,0,0,1-3.84,16.83,12,12,0,0,0-5.79,10.27,13.41,13.41,0,0,0,.1,1.54,11.67,11.67,0,0,1,.1,1.56,12,12,0,0,1-10.86,11.93A12,12,0,0,0,112,131.85a12,12,0,0,1-11.4,8.24,11.86,11.86,0,0,1-4.15-.75,12,12,0,0,0-12.78,2.92,12,12,0,0,1-17.26,0,12,12,0,0,0-12.78-2.92,11.86,11.86,0,0,1-4.15.75A12,12,0,0,1,38,131.85a12,12,0,0,0-10.24-8.17,12,12,0,0,1-10.86-11.93,11.67,11.67,0,0,1,.1-1.56,13.41,13.41,0,0,0,.1-1.54,12,12,0,0,0-5.79-10.27A12,12,0,0,1,7.51,81.55,12,12,0,0,0,9.45,75a12,12,0,0,0-1.94-6.55,12,12,0,0,1,3.84-16.83,12,12,0,0,0,5.79-10.27,13.41,13.41,0,0,0-.1-1.54,11.67,11.67,0,0,1-.1-1.56A12,12,0,0,1,27.8,26.32,12,12,0,0,0,38,18.15a12,12,0,0,1,11.4-8.24,11.86,11.86,0,0,1,4.15.75,12,12,0,0,0,4.15.74,12,12,0,0,0,8.63-3.66,12,12,0,0,1,17.26,0,12,12,0,0,0,12.78,2.92,11.86,11.86,0,0,1,4.15-.75A12,12,0,0,1,112,18.15a12,12,0,0,0,10.24,8.17,12,12,0,0,1,10.86,11.93,11.67,11.67,0,0,1-.1,1.56,13.41,13.41,0,0,0-.1,1.54,12,12,0,0,0,5.79,10.27,12,12,0,0,1,3.84,16.83,12,12,0,0,0,0,13.1Z"/><circle class="cls-2" cx="75" cy="75" r="54.67"/><path class="cls-3" d="M41.25,59.35A10.93,10.93,0,0,1,52,49,11.15,11.15,0,0,1,63,60.18v9.25h6.43V60.26a17.57,17.57,0,0,0-16.8-17.68A17.35,17.35,0,0,0,34.83,59.27a.62.62,0,0,0,.61.63h5.25A.56.56,0,0,0,41.25,59.35Z"/><path class="cls-3" d="M52,45.73A14.17,14.17,0,0,1,66,60v7.84H63V60.18A11.15,11.15,0,0,0,52,49a10.92,10.92,0,0,0-10.7,10.32.62.62,0,0,1-.61.59H37.92A14.09,14.09,0,0,1,52,45.73Z"/><path class="cls-3" d="M98.53,67.23h-38a3,3,0,0,0-3,3v33.31a3,3,0,0,0,3,3h38a3,3,0,0,0,3-3V70.23A3,3,0,0,0,98.53,67.23ZM81.86,87.37V92.6a2.33,2.33,0,1,1-4.66,0V87.37a4.59,4.59,0,1,1,4.66,0Z"/><path class="cls-3" d="M101.53,103.54V70.23a3,3,0,0,0-3-3H98.2c.88,7.51,2,31.74-18.14,39.32H98.53A3,3,0,0,0,101.53,103.54Z"/><path class="cls-3" d="M57.53,70.23v33.31a3,3,0,0,0,3,3h.27C58.06,75.68,73.4,67.23,73.4,67.23H60.53A3,3,0,0,0,57.53,70.23Z"/></svg>